<?xml version="1.0" encoding="UTF-8"?>
<svg id="Layer_7" data-name="Layer 7" xmlns="http://www.w3.org/2000/svg" viewBox="0 0 49.74 48.21">
  <defs>
    <style>
      .cls-1 {
        fill: #c4506f;
      }

      .cls-1, .cls-2, .cls-3, .cls-4, .cls-5, .cls-6, .cls-7 {
        stroke-width: 0px;
      }

      .cls-2 {
        fill: #fff;
      }

      .cls-3 {
        fill: #f2abbe;
      }

      .cls-4 {
        fill: #abc6fa;
      }

      .cls-5 {
        fill: #4366ab;
      }

      .cls-6 {
        fill: #d4e1fa;
      }

      .cls-7 {
        fill: #f2cbd6;
      }
    </style>
  </defs>
  <g>
    <path class="cls-2" d="M17.24,43.31c-2.55,0-5-.93-6.88-2.63-2.04-1.84-3.25-4.36-3.4-7.12s.78-5.4,2.62-7.45l1.34-1.49-1.49-1.34c-4.23-3.8-4.59-10.34-.79-14.57,1.84-2.05,4.36-3.25,7.12-3.4.19-.01.37-.02.56-.02,2.55,0,5,.94,6.89,2.63l1.49,1.34,1.34-1.49c1.95-2.17,4.75-3.42,7.69-3.42,2.55,0,5,.93,6.89,2.63,2.05,1.84,3.25,4.37,3.4,7.12s-.78,5.4-2.62,7.45l-1.34,1.49,1.49,1.34c2.04,1.83,3.25,4.36,3.4,7.12s-.78,5.4-2.62,7.45c-1.95,2.17-4.75,3.42-7.69,3.42-2.55,0-5-.93-6.89-2.63l-1.49-1.34-1.34,1.49c-1.95,2.17-4.75,3.42-7.68,3.42Z"/>
    <path class="cls-2" d="M33.71,7.05c1.81,0,3.63.64,5.08,1.94,1.56,1.4,2.4,3.31,2.51,5.26.11,1.95-.53,3.94-1.93,5.5l-3.15,3.5,3.51,3.15c3.12,2.8,3.38,7.63.58,10.75-1.5,1.67-3.58,2.52-5.67,2.52-1.81,0-3.63-.64-5.08-1.94l-3.5-3.15-3.15,3.5c-1.5,1.67-3.58,2.52-5.67,2.52-1.81,0-3.63-.64-5.08-1.94-3.12-2.8-3.38-7.63-.58-10.75l3.15-3.51-3.5-3.15c-3.12-2.8-3.38-7.64-.58-10.75,1.4-1.56,3.31-2.4,5.25-2.51.14,0,.28-.01.42-.01,1.81,0,3.63.64,5.08,1.94l3.51,3.15,3.15-3.51c1.5-1.67,3.58-2.52,5.67-2.52M33.71,1.64h0c-3.47,0-6.8,1.38-9.23,3.82-2.31-1.86-5.19-2.88-8.18-2.88-.24,0-.47,0-.71.02-3.48.19-6.67,1.71-8.99,4.3-2.32,2.58-3.49,5.92-3.3,9.4.18,3.25,1.52,6.25,3.8,8.52-4.32,5.34-3.74,13.23,1.43,17.87,2.39,2.14,5.47,3.32,8.69,3.32,3.47,0,6.8-1.38,9.23-3.82,2.31,1.86,5.18,2.88,8.17,2.88,3.7,0,7.24-1.57,9.7-4.32,4.64-5.17,4.37-13.07-.5-17.92,2.03-2.51,3.04-5.63,2.86-8.88-.19-3.48-1.71-6.67-4.3-8.99-2.39-2.14-5.47-3.32-8.69-3.32h0Z"/>
  </g>
  <g>
    <path class="cls-3" d="M34.64,40.47c-2.08,0-4.08-.76-5.62-2.15L10.68,21.86c-3.46-3.1-3.74-8.44-.64-11.9,1.59-1.77,3.88-2.79,6.27-2.79,2.08,0,4.08.76,5.62,2.15l18.34,16.46c3.46,3.1,3.74,8.44.64,11.9-1.59,1.77-3.88,2.79-6.27,2.79Z"/>
    <path class="cls-1" d="M16.31,7.99c1.81,0,3.63.64,5.08,1.94l18.34,16.46c3.12,2.8,3.38,7.63.58,10.75h0c-1.5,1.67-3.58,2.52-5.67,2.52-1.81,0-3.63-.64-5.08-1.94L11.22,21.26c-3.12-2.8-3.38-7.63-.58-10.75h0c1.5-1.67,3.58-2.52,5.67-2.52M16.31,6.37h0c-2.63,0-5.14,1.11-6.88,3.06-3.4,3.79-3.09,9.64.7,13.04l18.34,16.46c1.69,1.52,3.88,2.35,6.16,2.35,2.63,0,5.13-1.11,6.88-3.06,3.4-3.79,3.09-9.64-.7-13.04L22.47,8.72c-1.69-1.52-3.88-2.35-6.16-2.35h0Z"/>
  </g>
  <g>
    <path class="cls-7" d="M30.17,32.88c-.72,0-1.4-.26-1.93-.74l-11.33-10.17c-.57-.52-.91-1.23-.96-2-.04-.77.22-1.52.73-2.09l1.94-2.16c.55-.61,1.33-.96,2.16-.96.72,0,1.4.26,1.93.74l11.33,10.17c.57.52.91,1.23.96,2,.04.77-.22,1.52-.73,2.09l-1.94,2.16c-.55.61-1.33.96-2.16.96Z"/>
    <path class="cls-1" d="M20.78,15.31c.56,0,1.12.2,1.57.6l11.33,10.17c.96.87,1.05,2.36.18,3.33l-1.94,2.16c-.46.52-1.11.78-1.76.78-.56,0-1.12-.2-1.57-.6l-11.33-10.17c-.96-.87-1.05-2.36-.18-3.33l1.94-2.16c.46-.52,1.11-.78,1.76-.78M20.78,14.23h0c-.98,0-1.91.42-2.56,1.14l-1.94,2.16c-1.27,1.41-1.15,3.59.26,4.85l11.33,10.17c.63.57,1.44.88,2.29.88.98,0,1.91-.42,2.56-1.14l1.94-2.16c1.27-1.41,1.15-3.59-.26-4.85l-11.33-10.17c-.63-.57-1.44-.88-2.29-.88h0Z"/>
  </g>
  <g>
    <path class="cls-4" d="M17.24,41.41c-2.08,0-4.08-.76-5.62-2.15-3.46-3.1-3.74-8.44-.64-11.9L27.44,9.03c1.59-1.77,3.88-2.79,6.27-2.79,2.08,0,4.08.76,5.62,2.15,3.46,3.1,3.74,8.44.64,11.9l-16.46,18.34c-1.59,1.77-3.88,2.79-6.27,2.79Z"/>
    <path class="cls-5" d="M33.72,7.05c1.81,0,3.63.64,5.08,1.94h0c3.12,2.8,3.38,7.63.58,10.75l-16.46,18.34c-1.5,1.67-3.58,2.52-5.67,2.52-1.81,0-3.63-.64-5.08-1.94-3.12-2.8-3.38-7.63-.58-10.75L28.04,9.57c1.5-1.67,3.58-2.52,5.67-2.52M33.72,5.43h0c-2.63,0-5.14,1.11-6.88,3.06L10.37,26.83c-3.4,3.79-3.09,9.64.7,13.04,1.69,1.52,3.88,2.35,6.16,2.35,2.63,0,5.13-1.11,6.88-3.06l16.46-18.34c3.4-3.79,3.09-9.64-.7-13.04-1.69-1.52-3.88-2.35-6.16-2.35h0Z"/>
  </g>
  <g>
    <path class="cls-6" d="M23.23,31.59c-.62,0-1.21-.23-1.66-.64l-2.76-2.48c-.49-.44-.79-1.05-.82-1.72-.04-.67.19-1.31.63-1.8l7.24-8.07c.47-.52,1.15-.83,1.86-.83.62,0,1.21.23,1.66.64l2.76,2.47c.49.44.79,1.06.82,1.72.04.67-.19,1.31-.63,1.8l-7.24,8.07c-.47.52-1.15.83-1.86.83Z"/>
    <path class="cls-5" d="M27.72,16.6c.47,0,.93.16,1.3.5l2.76,2.48c.8.72.87,1.96.15,2.76l-7.24,8.07c-.38.43-.92.65-1.45.65-.47,0-.93-.16-1.3-.5l-2.76-2.48c-.8-.72-.87-1.96-.15-2.76l7.24-8.07c.38-.43.92-.65,1.45-.65M27.72,15.52h0c-.86,0-1.69.37-2.26,1.01l-7.24,8.07c-.54.6-.81,1.38-.77,2.19.04.81.4,1.56,1,2.1l2.76,2.48c.56.5,1.28.77,2.03.77.86,0,1.69-.37,2.26-1.01l7.24-8.07c1.12-1.25,1.01-3.17-.23-4.29l-2.76-2.48c-.56-.5-1.28-.77-2.03-.77h0Z"/>
  </g>
</svg>