<?xml version="1.0" encoding="UTF-8"?>
<svg id="Layer_6" data-name="Layer 6" xmlns="http://www.w3.org/2000/svg" viewBox="0 0 35.49 35.69">
  <defs>
    <style>
      .cls-1 {
        fill: #ebbd34;
      }

      .cls-1, .cls-2 {
        stroke-width: 0px;
      }

      .cls-3 {
        fill: #fff;
        stroke: #fff;
        stroke-miterlimit: 10;
        stroke-width: 4px;
      }

      .cls-2 {
        fill: #f5d693;
      }
    </style>
  </defs>
  <path class="cls-3" d="M32.76,18.02c-.04,8.3-6.78,15.01-15.08,15.01S2.6,26.28,2.6,17.95,9.31,2.91,17.61,2.87c-2.94,1.96-4.89,5.31-4.89,9.11,0,6.03,4.89,10.92,10.92,10.92,3.8,0,7.15-1.94,9.11-4.88Z"/>
  <g>
    <path class="cls-2" d="M17.68,32.26c-7.89,0-14.31-6.42-14.31-14.3,0-7.05,5.14-12.94,11.87-14.1-2.09,2.16-3.28,5.06-3.28,8.13,0,6.45,5.25,11.7,11.7,11.7,3.07,0,5.97-1.19,8.13-3.28-1.17,6.72-7.06,11.86-14.1,11.86Z"/>
    <path class="cls-1" d="M13.19,5.18c-1.3,1.99-2.01,4.34-2.01,6.8,0,6.87,5.59,12.47,12.47,12.47,2.45,0,4.8-.72,6.8-2.01-1.86,5.26-6.89,9.05-12.77,9.05-7.46,0-13.54-6.07-13.54-13.53,0-5.88,3.79-10.92,9.06-12.77M17.61,2.87c-8.3.03-15.02,6.77-15.02,15.08s6.75,15.08,15.08,15.08,15.04-6.71,15.08-15.01c-1.96,2.94-5.31,4.88-9.11,4.88-6.03,0-10.92-4.89-10.92-10.92,0-3.8,1.94-7.15,4.89-9.11h0Z"/>
  </g>
</svg>