<?xml version="1.0" encoding="UTF-8"?>
<svg id="Layer_7" data-name="Layer 7" xmlns="http://www.w3.org/2000/svg" viewBox="0 0 57.23 51.18">
  <defs>
    <style>
      .cls-1 {
        fill: #edc953;
      }

      .cls-1, .cls-2, .cls-3 {
        stroke-width: 0px;
      }

      .cls-2 {
        fill: #c9ab48;
      }

      .cls-3 {
        fill: #f2f2f2;
      }
    </style>
  </defs>
  <g>
    <path class="cls-1" d="M13.87,46.32c-.17,0-.33,0-.49-.02-1.59-.13-3.04-.88-4.08-2.11-1.6-1.89-1.88-4.52-.72-6.7L25.25,6.15c.94-1.76,2.68-2.94,4.66-3.15.21-.02.43-.03.64-.03,1.77,0,3.44.77,4.58,2.12l16.99,20.05c1.29,1.52,1.74,3.58,1.2,5.5-.53,1.92-1.98,3.44-3.87,4.08l-33.65,11.29c-.62.21-1.27.31-1.92.31ZM18.19,36.66l25.75-8.64-13-15.35-12.76,23.98Z"/>
    <path class="cls-3" d="M30.55,5.47c1.02,0,2,.45,2.67,1.24l16.99,20.05c.75.89,1.01,2.09.7,3.21-.31,1.12-1.16,2.01-2.26,2.38l-33.65,11.29c-.37.12-.75.18-1.12.18-.1,0-.19,0-.29-.01-.91-.07-1.76-.5-2.38-1.23-.93-1.1-1.1-2.64-.42-3.91L27.45,7.33c.55-1.03,1.56-1.71,2.72-1.84.13-.01.25-.02.38-.02M13.87,40.72s.09,0,.14-.03l33.65-11.29c.17-.06.24-.18.26-.28.03-.1.03-.24-.08-.37L30.86,8.71c-.09-.1-.19-.14-.27-.14-.01,0-.02,0-.04,0-.02,0-.03,0-.05,0-.1.01-.23.06-.32.21l-16.67,31.34c-.11.2-.03.36.05.46.06.07.16.15.3.15M30.55.47c-.3,0-.61.02-.91.05-2.81.3-5.27,1.97-6.6,4.46L6.37,36.32c-1.64,3.09-1.24,6.82,1.02,9.49,1.47,1.74,3.52,2.79,5.78,2.98.23.02.47.03.7.03.92,0,1.84-.15,2.71-.44l33.65-11.29c2.68-.9,4.73-3.06,5.49-5.78.76-2.72.12-5.63-1.7-7.78L37.04,3.47c-1.62-1.91-3.98-3.01-6.49-3.01h0ZM23.34,32.29l8.08-15.19,8.23,9.72-16.31,5.47h0Z"/>
  </g>
  <g>
    <path class="cls-1" d="M13.87,44.59c-.12,0-.24,0-.35-.01-1.13-.09-2.16-.63-2.9-1.5-1.14-1.35-1.34-3.22-.51-4.77L26.77,6.96c.67-1.25,1.91-2.09,3.32-2.25.15-.02.31-.02.46-.02,1.26,0,2.45.55,3.26,1.51l16.99,20.05c.92,1.08,1.24,2.55.86,3.92-.38,1.37-1.41,2.45-2.76,2.91l-33.65,11.29c-.44.15-.9.22-1.37.22ZM14.63,39.67l32.28-10.83L30.62,9.62l-15.98,30.06Z"/>
    <path class="cls-2" d="M30.55,5.47c1.02,0,2,.45,2.67,1.24l16.99,20.05c.75.89,1.01,2.09.7,3.21-.31,1.12-1.16,2.01-2.26,2.38l-33.65,11.29c-.37.12-.75.18-1.12.18-.1,0-.19,0-.29-.01-.91-.07-1.76-.5-2.38-1.23-.93-1.1-1.1-2.64-.42-3.91L27.45,7.33c.55-1.03,1.56-1.71,2.72-1.84.13-.01.25-.02.38-.02M13.87,40.72s.09,0,.14-.03l33.65-11.29c.17-.06.24-.18.26-.28.03-.1.03-.24-.08-.37L30.86,8.71c-.09-.1-.19-.14-.27-.14-.01,0-.02,0-.04,0-.02,0-.03,0-.05,0-.1.01-.23.06-.32.22l-16.67,31.34c-.11.2-.03.36.05.46.06.07.16.15.3.15M30.55,3.92h0c-.18,0-.36,0-.54.03-1.67.18-3.13,1.17-3.92,2.65l-16.67,31.34c-.98,1.84-.74,4.05.61,5.64.87,1.03,2.09,1.66,3.43,1.77.14.01.28.02.41.02.55,0,1.09-.09,1.62-.26l33.65-11.29c1.59-.53,2.81-1.82,3.26-3.43.45-1.61.07-3.34-1.01-4.62L34.4,5.71c-.96-1.14-2.37-1.79-3.85-1.79h0ZM16.23,38.32l14.54-27.34,14.82,17.49-29.35,9.85h0Z"/>
  </g>
</svg>