<?xml version="1.0" encoding="UTF-8"?>
<svg id="Layer_7" data-name="Layer 7" xmlns="http://www.w3.org/2000/svg" viewBox="0 0 60.31 55.9">
  <defs>
    <style>
      .cls-1 {
        fill: #90abd4;
      }

      .cls-1, .cls-2, .cls-3, .cls-4 {
        stroke-width: 0px;
      }

      .cls-2 {
        fill: #7260b3;
      }

      .cls-3 {
        fill: #bdbffa;
      }

      .cls-4 {
        fill: #f2f2f2;
      }
    </style>
  </defs>
  <g>
    <path class="cls-1" d="M39.42,50.12c-2.04,0-3.96-.8-5.43-2.26l-6.49-6.45-9.07,1.16c-.35.04-.69.07-1.02.07-3.12,0-5.92-1.88-7.13-4.78-1.2-2.89-.55-6.2,1.66-8.43l6.45-6.49-1.16-9.07c-.29-2.25.37-4.41,1.84-6.09,1.49-1.69,3.63-2.66,5.87-2.66,2.04,0,3.97.8,5.43,2.26l6.49,6.44,9.07-1.16c.35-.04.69-.07,1.02-.07,3.12,0,5.92,1.88,7.12,4.78,1.2,2.89.55,6.2-1.66,8.43l-6.45,6.49,1.16,9.07c.29,2.25-.37,4.41-1.84,6.09-1.49,1.69-3.63,2.66-5.87,2.66Z"/>
    <path class="cls-4" d="M24.94,9.62c.79,0,1.6.29,2.26.95l6.92,6.88c.61.61,1.44.94,2.29.94.14,0,.28,0,.41-.03l9.68-1.24c.15-.02.3-.03.45-.03,2.79,0,4.34,3.46,2.27,5.54l-6.88,6.92c-.71.71-1.05,1.71-.92,2.7l1.24,9.68c.27,2.14-1.44,3.67-3.25,3.67-.79,0-1.6-.29-2.26-.95l-6.92-6.88c-.61-.61-1.44-.94-2.29-.94-.14,0-.28,0-.41.03l-9.68,1.24c-.15.02-.3.03-.45.03-2.79,0-4.34-3.46-2.27-5.54l6.88-6.92c.71-.71,1.05-1.71.92-2.7l-1.24-9.68c-.27-2.14,1.44-3.67,3.25-3.67M24.94.62c-3.54,0-6.91,1.53-9.25,4.18-2.31,2.62-3.38,6.13-2.93,9.63l.88,6.89-4.9,4.93c-3.5,3.52-4.53,8.75-2.62,13.33,1.91,4.59,6.34,7.55,11.28,7.55.53,0,1.06-.03,1.59-.1l6.89-.88,4.93,4.9c2.32,2.3,5.37,3.57,8.6,3.57,3.54,0,6.91-1.53,9.25-4.18,2.31-2.62,3.38-6.13,2.93-9.63l-.88-6.89,4.9-4.93c3.5-3.52,4.53-8.75,2.62-13.33-1.91-4.59-6.34-7.55-11.28-7.55-.53,0-1.06.03-1.59.1l-6.89.88-4.93-4.9c-2.32-2.3-5.37-3.57-8.6-3.57h0Z"/>
  </g>
  <g>
    <path class="cls-3" d="M39.42,47.12c-1.24,0-2.42-.49-3.32-1.39l-6.92-6.88c-.33-.33-.77-.51-1.23-.51-.07,0-.15,0-.22.01l-9.68,1.24c-.22.03-.43.04-.64.04-1.9,0-3.61-1.15-4.36-2.94-.75-1.8-.36-3.78,1.02-5.16l6.88-6.92c.38-.39.56-.92.49-1.46l-1.24-9.68c-.18-1.38.22-2.7,1.12-3.72.92-1.04,2.24-1.64,3.62-1.64,1.24,0,2.42.49,3.32,1.39l6.92,6.88c.33.33.77.51,1.23.51.07,0,.15,0,.22-.01l9.68-1.24c.22-.03.43-.04.64-.04,1.9,0,3.61,1.15,4.35,2.94.75,1.8.36,3.78-1.02,5.17l-6.88,6.92c-.38.39-.56.92-.49,1.46l1.24,9.68c.18,1.38-.22,2.7-1.12,3.72-.92,1.04-2.24,1.64-3.62,1.64Z"/>
    <path class="cls-2" d="M24.94,9.62c.79,0,1.6.29,2.26.95l6.92,6.88c.61.61,1.44.94,2.29.94.14,0,.28,0,.41-.03l9.68-1.24c.15-.02.3-.03.45-.03,2.79,0,4.34,3.46,2.27,5.54l-6.88,6.92c-.71.71-1.05,1.71-.92,2.7l1.24,9.68c.27,2.14-1.44,3.67-3.25,3.67-.79,0-1.6-.29-2.26-.95l-6.92-6.88c-.61-.61-1.44-.94-2.29-.94-.14,0-.28,0-.41.03l-9.68,1.24c-.15.02-.3.03-.45.03-2.79,0-4.34-3.46-2.27-5.54l6.88-6.92c.71-.71,1.05-1.71.92-2.7l-1.24-9.68c-.27-2.14,1.44-3.67,3.25-3.67M24.94,6.62c-1.81,0-3.54.78-4.75,2.15-1.19,1.35-1.71,3.09-1.48,4.91l1.24,9.68c0,.08-.02.15-.07.21l-6.88,6.92c-1.81,1.82-2.33,4.43-1.34,6.8.98,2.34,3.23,3.86,5.74,3.86.27,0,.55-.02.83-.05l9.68-1.24s0,0,.01,0c.09,0,.15.03.2.07l6.92,6.88c1.19,1.18,2.74,1.83,4.38,1.83,1.81,0,3.54-.78,4.75-2.15,1.19-1.35,1.71-3.09,1.48-4.91l-1.24-9.68c0-.08.02-.15.07-.21l6.88-6.92c1.81-1.82,2.33-4.43,1.34-6.8-.98-2.34-3.23-3.86-5.74-3.86-.27,0-.55.02-.83.05l-9.68,1.24s0,0-.01,0c-.09,0-.15-.03-.2-.07l-6.92-6.88c-1.19-1.18-2.74-1.83-4.38-1.83h0Z"/>
  </g>
</svg>