<?xml version="1.0" encoding="UTF-8"?>
<svg id="Layer_7" data-name="Layer 7" xmlns="http://www.w3.org/2000/svg" viewBox="0 0 48.31 49.85">
  <defs>
    <style>
      .cls-1 {
        fill: #f2aba9;
      }

      .cls-1, .cls-2, .cls-3 {
        stroke-width: 0px;
      }

      .cls-2 {
        fill: #de6e6a;
      }

      .cls-3 {
        fill: #fff;
      }
    </style>
  </defs>
  <path class="cls-3" d="M22.27,9.25c.47,0,.94.18,1.31.57l5.48,5.87c.31.34.74.54,1.2.57l8.02.48c1.32.08,2.1,1.51,1.46,2.66l-3.89,7.03c-.22.4-.28.88-.17,1.32l2.02,7.78c.3,1.16-.59,2.25-1.73,2.25-.11,0-.23-.01-.35-.03l-7.89-1.53c-.11-.02-.23-.03-.34-.03-.34,0-.68.1-.97.28l-6.77,4.32c-.3.19-.64.28-.96.28-.86,0-1.67-.63-1.79-1.58l-.98-7.97c-.06-.46-.29-.87-.64-1.17l-6.2-5.1c-1.02-.84-.82-2.45.38-3.01l7.28-3.4c.42-.19.74-.54.91-.97l2.94-7.48c.29-.73.98-1.14,1.68-1.14M22.27,2.25h0c-3.64,0-6.86,2.19-8.19,5.58l-2.18,5.54-5.4,2.52c-2.75,1.29-4.62,3.85-5,6.87-.38,3.01.79,5.97,3.14,7.9l4.6,3.78.73,5.91c.54,4.4,4.3,7.72,8.73,7.72,1.68,0,3.31-.48,4.73-1.38l5.02-3.2,5.85,1.13c.55.11,1.12.16,1.68.16,2.74,0,5.27-1.25,6.95-3.42,1.68-2.17,2.24-4.93,1.55-7.59l-1.5-5.76,2.88-5.21c1.47-2.66,1.48-5.83.01-8.5-1.46-2.66-4.15-4.36-7.18-4.54l-5.94-.36-4.06-4.35c-1.66-1.78-4-2.79-6.42-2.79h0Z"/>
  <g>
    <path class="cls-1" d="M18.7,42.42c-1.59,0-2.93-1.19-3.13-2.76l-.98-7.97c-.01-.11-.07-.22-.16-.29l-6.2-5.1c-.84-.69-1.26-1.75-1.12-2.82.14-1.08.81-2,1.79-2.46l7.28-3.4c.1-.05.18-.13.23-.24l2.94-7.48c.48-1.21,1.63-2,2.93-2,.88,0,1.69.36,2.3,1l5.48,5.87c.08.08.18.13.3.14l8.02.48c1.08.07,2.04.67,2.57,1.63.52.95.52,2.09,0,3.04l-3.89,7.03c-.06.1-.07.22-.04.33l2.02,7.77c.25.95.04,1.94-.55,2.71-.6.78-1.51,1.22-2.48,1.22-.2,0-.4-.02-.61-.06l-7.89-1.53s-.04,0-.06,0c-.13,0-.2.02-.26.06l-6.77,4.32c-.51.32-1.09.5-1.69.5Z"/>
    <path class="cls-2" d="M22.27,9.25c.47,0,.94.18,1.31.57l5.48,5.87c.31.34.74.54,1.2.57l8.02.48c1.32.08,2.1,1.51,1.46,2.66l-3.89,7.03c-.22.4-.28.88-.17,1.32l2.02,7.78c.3,1.16-.59,2.25-1.73,2.25-.11,0-.23-.01-.35-.03l-7.89-1.53c-.11-.02-.23-.03-.34-.03-.34,0-.68.1-.97.28l-6.77,4.32c-.3.19-.64.28-.96.28-.86,0-1.67-.63-1.79-1.58l-.98-7.97c-.06-.46-.29-.87-.64-1.17l-6.2-5.1c-1.02-.84-.82-2.45.38-3.01l7.28-3.4c.42-.19.74-.54.91-.97l2.94-7.48c.29-.73.98-1.14,1.68-1.14M22.27,6.54h0c-1.87,0-3.51,1.12-4.19,2.85l-2.8,7.14-6.95,3.25c-1.41.66-2.36,1.97-2.56,3.51-.19,1.54.41,3.05,1.6,4.04l5.92,4.87.94,7.61c.28,2.25,2.2,3.95,4.47,3.95.85,0,1.69-.25,2.42-.71l6.47-4.13,7.53,1.46c.28.06.58.08.86.08,1.4,0,2.69-.64,3.55-1.75.86-1.11,1.15-2.52.79-3.88l-1.93-7.42,3.71-6.71c.75-1.36.75-2.98,0-4.34-.75-1.36-2.12-2.23-3.67-2.32l-7.66-.46-5.23-5.61c-.86-.92-2.03-1.43-3.28-1.43h0Z"/>
  </g>
</svg>