<?xml version="1.0" encoding="UTF-8"?>
<svg id="Layer_6" data-name="Layer 6" xmlns="http://www.w3.org/2000/svg" viewBox="0 0 38.98 38.98">
  <defs>
    <style>
      .cls-1 {
        fill: #ebbd34;
      }

      .cls-1, .cls-2, .cls-3 {
        stroke-width: 0px;
      }

      .cls-2, .cls-4 {
        fill: #fff;
      }

      .cls-4 {
        stroke: #fff;
        stroke-miterlimit: 10;
        stroke-width: 4px;
      }

      .cls-3 {
        fill: #f5d693;
      }
    </style>
  </defs>
  <g>
    <path class="cls-2" d="M19.49,26.86c-4.06,0-7.37-3.3-7.37-7.37s3.3-7.36,7.37-7.36,7.36,3.3,7.36,7.36-3.3,7.37-7.36,7.37Z"/>
    <path class="cls-2" d="M19.49,14.22c2.91,0,5.27,2.36,5.27,5.27s-2.36,5.27-5.27,5.27-5.27-2.36-5.27-5.27,2.36-5.27,5.27-5.27M19.49,10.03c-5.22,0-9.46,4.24-9.46,9.46s4.24,9.46,9.46,9.46,9.46-4.24,9.46-9.46-4.24-9.46-9.46-9.46h0Z"/>
  </g>
  <g>
    <path class="cls-3" d="M19.49,27.08c-4.18,0-7.59-3.4-7.59-7.59s3.4-7.59,7.59-7.59,7.59,3.4,7.59,7.59-3.4,7.59-7.59,7.59Z"/>
    <path class="cls-1" d="M19.49,12.35c3.94,0,7.14,3.2,7.14,7.14s-3.2,7.14-7.14,7.14-7.14-3.2-7.14-7.14,3.2-7.14,7.14-7.14M19.49,11.45c-4.44,0-8.04,3.6-8.04,8.04s3.6,8.04,8.04,8.04,8.04-3.6,8.04-8.04-3.6-8.04-8.04-8.04h0Z"/>
  </g>
  <rect class="cls-4" x="18.6" y="2" width="1.78" height="5.55" rx=".89" ry=".89"/>
  <rect class="cls-4" x="18.6" y="31.44" width="1.78" height="5.55" rx=".89" ry=".89"/>
  <rect class="cls-4" x="29.01" y="6.31" width="1.78" height="5.55" rx=".89" ry=".89" transform="translate(15.18 -18.48) rotate(45)"/>
  <rect class="cls-4" x="8.19" y="27.12" width="1.78" height="5.55" rx=".89" ry=".89" transform="translate(23.8 2.33) rotate(45)"/>
  <rect class="cls-4" x="29.01" y="27.12" width="1.78" height="5.55" rx=".89" ry=".89" transform="translate(72.18 29.9) rotate(135)"/>
  <rect class="cls-4" x="8.19" y="6.31" width="1.78" height="5.55" rx=".89" ry=".89" transform="translate(21.93 9.08) rotate(135)"/>
  <rect class="cls-4" x="33.32" y="16.72" width="1.78" height="5.55" rx=".89" ry=".89" transform="translate(53.7 -14.72) rotate(90)"/>
  <rect class="cls-4" x="3.88" y="16.72" width="1.78" height="5.55" rx=".89" ry=".89" transform="translate(24.26 14.72) rotate(90)"/>
  <g>
    <path class="cls-3" d="M19.49,7.92c-.7,0-1.27-.57-1.27-1.26v-3.77c0-.7.57-1.26,1.27-1.26s1.26.57,1.26,1.26v3.77c0,.7-.57,1.26-1.26,1.26Z"/>
    <path class="cls-1" d="M19.49,2c.49,0,.89.4.89.89v3.77c0,.49-.4.89-.89.89s-.89-.4-.89-.89v-3.77c0-.49.4-.89.89-.89M19.49,1.25c-.9,0-1.64.74-1.64,1.64v3.77c0,.9.74,1.64,1.64,1.64s1.64-.74,1.64-1.64v-3.77c0-.9-.74-1.64-1.64-1.64h0Z"/>
  </g>
  <g>
    <path class="cls-3" d="M19.49,37.36c-.7,0-1.27-.57-1.27-1.27v-3.77c0-.7.57-1.27,1.27-1.27s1.26.57,1.26,1.27v3.77c0,.7-.57,1.27-1.26,1.27Z"/>
    <path class="cls-1" d="M19.49,31.44c.49,0,.89.4.89.89v3.77c0,.49-.4.89-.89.89s-.89-.4-.89-.89v-3.77c0-.49.4-.89.89-.89M19.49,30.69c-.9,0-1.64.74-1.64,1.64v3.77c0,.9.74,1.64,1.64,1.64s1.64-.74,1.64-1.64v-3.77c0-.9-.74-1.64-1.64-1.64h0Z"/>
  </g>
  <g>
    <path class="cls-3" d="M28.57,11.68c-.34,0-.66-.13-.89-.37-.49-.49-.49-1.3,0-1.79l2.66-2.66c.24-.24.56-.37.89-.37s.66.13.89.37.37.56.37.89-.13.66-.37.89l-2.66,2.66c-.24.24-.56.37-.89.37Z"/>
    <path class="cls-1" d="M31.23,6.86c.23,0,.46.09.63.26.35.35.35.91,0,1.26l-2.66,2.66c-.17.17-.4.26-.63.26s-.46-.09-.63-.26c-.35-.35-.35-.91,0-1.26l2.66-2.66c.17-.17.4-.26.63-.26M31.23,6.11c-.44,0-.85.17-1.16.48l-2.66,2.66c-.64.64-.64,1.68,0,2.32.31.31.72.48,1.16.48s.85-.17,1.16-.48l2.66-2.66c.64-.64.64-1.68,0-2.32-.31-.31-.72-.48-1.16-.48h0Z"/>
  </g>
  <g>
    <path class="cls-3" d="M7.75,32.49c-.34,0-.66-.13-.89-.37-.49-.49-.49-1.3,0-1.79l2.66-2.66c.24-.24.56-.37.89-.37s.66.13.89.37c.49.49.49,1.3,0,1.79l-2.66,2.66c-.24.24-.56.37-.89.37Z"/>
    <path class="cls-1" d="M10.42,27.68c.23,0,.46.09.63.26.35.35.35.91,0,1.26l-2.66,2.66c-.17.17-.4.26-.63.26s-.46-.09-.63-.26c-.35-.35-.35-.91,0-1.26l2.66-2.66c.17-.17.4-.26.63-.26M10.42,26.93c-.44,0-.85.17-1.16.48l-2.66,2.66c-.64.64-.64,1.68,0,2.32.31.31.72.48,1.16.48s.85-.17,1.16-.48l2.66-2.66c.64-.64.64-1.68,0-2.32-.31-.31-.72-.48-1.16-.48h0Z"/>
  </g>
  <g>
    <path class="cls-3" d="M31.23,32.49c-.34,0-.66-.13-.89-.37l-2.66-2.66c-.49-.49-.49-1.3,0-1.79.24-.24.56-.37.89-.37s.66.13.89.37l2.66,2.66c.49.49.49,1.3,0,1.79-.24.24-.56.37-.89.37Z"/>
    <path class="cls-1" d="M28.57,27.68c.23,0,.46.09.63.26l2.66,2.66c.35.35.35.91,0,1.26-.17.17-.4.26-.63.26s-.46-.09-.63-.26l-2.66-2.66c-.35-.35-.35-.91,0-1.26.17-.17.4-.26.63-.26M28.57,26.93c-.44,0-.85.17-1.16.48-.64.64-.64,1.68,0,2.32l2.66,2.66c.31.31.72.48,1.16.48s.85-.17,1.16-.48c.64-.64.64-1.68,0-2.32l-2.66-2.66c-.31-.31-.72-.48-1.16-.48h0Z"/>
  </g>
  <g>
    <path class="cls-3" d="M10.42,11.68c-.34,0-.66-.13-.89-.37l-2.66-2.66c-.24-.24-.37-.56-.37-.89s.13-.66.37-.89.56-.37.89-.37.66.13.89.37l2.66,2.66c.49.49.49,1.3,0,1.79-.24.24-.56.37-.89.37Z"/>
    <path class="cls-1" d="M7.75,6.86c.23,0,.46.09.63.26l2.66,2.66c.35.35.35.91,0,1.26-.17.17-.4.26-.63.26s-.46-.09-.63-.26l-2.66-2.66c-.35-.35-.35-.91,0-1.26.17-.17.4-.26.63-.26M7.75,6.11c-.44,0-.85.17-1.16.48-.64.64-.64,1.68,0,2.32l2.66,2.66c.31.31.72.48,1.16.48s.85-.17,1.16-.48c.64-.64.64-1.68,0-2.32l-2.66-2.66c-.31-.31-.72-.48-1.16-.48h0Z"/>
  </g>
  <g>
    <path class="cls-3" d="M32.33,20.76c-.7,0-1.27-.57-1.27-1.27s.57-1.26,1.27-1.26h3.77c.7,0,1.26.57,1.26,1.26s-.57,1.27-1.26,1.27h-3.77Z"/>
    <path class="cls-1" d="M36.09,18.6c.49,0,.89.4.89.89s-.4.89-.89.89h-3.77c-.49,0-.89-.4-.89-.89s.4-.89.89-.89h3.77M36.09,17.85h-3.77c-.9,0-1.64.74-1.64,1.64s.74,1.64,1.64,1.64h3.77c.9,0,1.64-.74,1.64-1.64s-.74-1.64-1.64-1.64h0Z"/>
  </g>
  <g>
    <path class="cls-3" d="M2.89,20.76c-.7,0-1.27-.57-1.27-1.27s.57-1.26,1.27-1.26h3.77c.7,0,1.27.57,1.27,1.26s-.57,1.27-1.27,1.27h-3.77Z"/>
    <path class="cls-1" d="M6.66,18.6c.49,0,.89.4.89.89s-.4.89-.89.89h-3.77c-.49,0-.89-.4-.89-.89s.4-.89.89-.89h3.77M6.66,17.85h-3.77c-.9,0-1.64.74-1.64,1.64s.74,1.64,1.64,1.64h3.77c.9,0,1.64-.74,1.64-1.64s-.74-1.64-1.64-1.64h0Z"/>
  </g>
</svg>